<svg xmlns="http://www.w3.org/2000/svg" viewBox="0 0 1200 630" role="img" aria-label="PDF/UA API">
  <defs>
    <linearGradient id="bg" x1="0" y1="0" x2="1" y2="1">
      <stop offset="0" stop-color="#0B1220"/>
      <stop offset="1" stop-color="#15233F"/>
    </linearGradient>
  </defs>
  <rect width="1200" height="630" fill="url(#bg)"/>
  <g transform="translate(96 150)">
    <rect x="0" y="0" width="150" height="195" rx="20" fill="#2563EB"/>
    <rect x="30" y="46" width="90" height="16" rx="8" fill="#FFFFFF" opacity="0.95"/>
    <rect x="30" y="80" width="90" height="16" rx="8" fill="#FFFFFF" opacity="0.7"/>
    <rect x="30" y="114" width="60" height="16" rx="8" fill="#FFFFFF" opacity="0.7"/>
    <circle cx="140" cy="170" r="46" fill="#22C55E" stroke="#0B1220" stroke-width="10"/>
    <path d="M119 170 L134 185 L162 152" fill="none" stroke="#FFFFFF" stroke-width="13" stroke-linecap="round" stroke-linejoin="round"/>
  </g>
  <text x="320" y="250" font-family="Inter, ui-sans-serif, system-ui, sans-serif" font-size="76" font-weight="800" fill="#FFFFFF">PDF/UA API</text>
  <text x="322" y="330" font-family="Inter, ui-sans-serif, system-ui, sans-serif" font-size="38" font-weight="500" fill="#93C5FD">Accessible PDF/A-3a &amp; PDF/UA documents</text>
  <text x="322" y="386" font-family="Inter, ui-sans-serif, system-ui, sans-serif" font-size="32" font-weight="400" fill="#94A3B8">from HTML, URLs and JSON templates</text>
  <g font-family="Inter, ui-sans-serif, system-ui, sans-serif" font-size="26" font-weight="600">
    <rect x="322" y="430" width="190" height="52" rx="26" fill="#1E293B" stroke="#334155" stroke-width="1.5"/>
    <text x="417" y="464" fill="#E2E8F0" text-anchor="middle">PDF/A-3a</text>
    <rect x="528" y="430" width="160" height="52" rx="26" fill="#1E293B" stroke="#334155" stroke-width="1.5"/>
    <text x="608" y="464" fill="#E2E8F0" text-anchor="middle">PDF/UA</text>
    <rect x="704" y="430" width="210" height="52" rx="26" fill="#1E293B" stroke="#334155" stroke-width="1.5"/>
    <text x="809" y="464" fill="#E2E8F0" text-anchor="middle">Self-hosted</text>
  </g>
</svg>
